<!--?xml version="1.0" encoding="utf-8"?-->
<!-- Svg Vector Icons : http://www.onlinewebfonts.com/icon -->

<svg version="1.1" xmlns="http://www.w3.org/2000/svg" xmlns:xlink="http://www.w3.org/1999/xlink" x="0px" y="0px" viewBox="0 0 256 256" enable-background="new 0 0 256 256" xml:space="preserve">
<metadata> Svg Vector Icons : http://www.onlinewebfonts.com/icon </metadata>
<g><g><g><path fill="#000000" data-title="Layer 0" xs="0" d="M43.5,10.4c-0.6,0.2-1.2,0.8-1.5,1.3c-0.4,0.6-0.5,35.6-0.5,116.4c0,113,0,115.5,0.9,116.6l0.9,1.1L127,246c55.1,0,84.1,0,84.9-0.4c2.7-1,2.5,3.7,2.5-85.7c0-45.1-0.1-82.7-0.3-83.5c-0.2-1.2-7-8.2-32-33.3c-19-19.2-32.2-32.1-33.1-32.5c-1.2-0.5-10.7-0.6-53-0.6C67.5,10,44.1,10.2,43.5,10.4z M143.4,47.3c0,24.8,0.1,29.8,0.6,31.1c0.4,0.9,0.7,1.7,0.8,1.7c0.1,0.1,13.9,0.2,30.8,0.4l30.7,0.2l0.1,78.7l0.1,78.8h-78.9H48.9V128V17.8h47.3h47.3V47.3z M200.6,72.8c0,0.2-11.1,0.4-24.7,0.4h-24.7v-25v-25L176,47.8C189.5,61.3,200.6,72.6,200.6,72.8z"/><path fill="#000000" data-title="Layer 1" xs="1" d="M78.1,105.6c-1.7,1.4-1.8,4-0.3,5.5l1.1,1h48.8c48.3,0,48.9,0,49.8-0.9c0.5-0.5,1.1-1.6,1.2-2.4c0.2-1.2,0-1.7-1.1-2.9l-1.4-1.4h-48.5H79.4L78.1,105.6z"/><path fill="#000000" data-title="Layer 2" xs="2" d="M78.9,136.5c-2.5,1.3-2.8,4.6-0.6,6.3c1.2,0.9,2,0.9,49.5,0.9h48.3l1.2-1.1c1.7-1.4,1.8-4,0.3-5.5l-1.1-1l-48.3-0.1C90,135.9,79.8,136,78.9,136.5z"/><path fill="#000000" data-title="Layer 3" xs="3" d="M78.5,168c-0.7,0.3-1.9,2.6-1.9,3.5c0,0.4,0.6,1.3,1.2,2.1l1.2,1.4h48.7c48.3,0,48.7,0,49.8-0.9c0.6-0.5,1.1-1.4,1.3-2c0.3-1.3-0.8-3.7-1.9-4.2C176,167.6,79.4,167.6,78.5,168z"/></g></g></g>
</svg>